<svg width="32" height="32" viewBox="0 0 32 32" fill="none" xmlns="http://www.w3.org/2000/svg">
<path id="Combined Shape" fill-rule="evenodd" clip-rule="evenodd" d="M16 4.60933C15.448 4.60933 15 4.16133 15 3.60933V1C15 0.448 15.448 0 16 0C16.552 0 17 0.448 17 1V3.60933C17 4.16133 16.552 4.60933 16 4.60933ZM24.7613 8.23867C24.5053 8.23867 24.2493 8.14133 24.0547 7.94533C23.664 7.55467 23.664 6.92133 24.0547 6.53067L25.9 4.68533C26.2907 4.29467 26.924 4.29467 27.3147 4.68533C27.7053 5.076 27.7053 5.70933 27.3147 6.1L25.4693 7.94533C25.2733 8.14 25.0173 8.23867 24.7613 8.23867ZM28.3907 17H31C31.552 17 32 16.552 32 16C32 15.448 31.552 15 31 15H28.3907C27.8387 15 27.3907 15.448 27.3907 16C27.3907 16.552 27.8387 17 28.3907 17ZM26.6067 27.6067C26.3507 27.6067 26.0947 27.5093 25.9 27.3133L24.0547 25.468C23.664 25.0773 23.664 24.444 24.0547 24.0533C24.4453 23.6627 25.0787 23.6627 25.4693 24.0533L27.3147 25.8987C27.7053 26.2893 27.7053 26.9227 27.3147 27.3133C27.1187 27.5093 26.8627 27.6067 26.6067 27.6067ZM4.68667 27.3133C4.88133 27.5093 5.13733 27.6067 5.39333 27.6067C5.64933 27.6067 5.90533 27.5093 6.10133 27.3133L7.94667 25.468C8.33733 25.0773 8.33733 24.444 7.94667 24.0533C7.556 23.6627 6.92267 23.6627 6.532 24.0533L4.68667 25.8987C4.296 26.2893 4.296 26.9227 4.68667 27.3133ZM3.60933 17H1C0.448 17 0 16.552 0 16C0 15.448 0.448 15 1 15H3.60933C4.16133 15 4.60933 15.448 4.60933 16C4.60933 16.552 4.16133 17 3.60933 17ZM6.532 7.94533C6.72667 8.14133 6.98267 8.23867 7.23867 8.23867C7.49467 8.23867 7.74933 8.14 7.94667 7.94533C8.33733 7.55467 8.33733 6.92133 7.94667 6.53067L6.10133 4.68533C5.71067 4.29467 5.07733 4.29467 4.68667 4.68533C4.296 5.076 4.296 5.70933 4.68667 6.1L6.532 7.94533ZM20 28V29.6667C20 30.9467 18.9467 32 17.6667 32H14.3333C13.2133 32 12 31.1467 12 29.28V28H20ZM21.88 8.74667C19.6933 6.97333 16.8133 6.28 14 6.88C10.4667 7.61333 7.6 10.4933 6.86667 14.0267C6.12 17.6533 7.48 21.2533 10.3867 23.4533C11.1733 24.04 11.72 24.9467 11.9067 26V26.0133C11.9333 26 11.9733 26 12 26H20C20.0267 26 20.04 26 20.0667 26.0133V26C20.2533 24.9867 20.8533 24.0533 21.7733 23.3333C24.0267 21.5467 25.3333 18.88 25.3333 16C25.3333 13.1733 24.08 10.5333 21.88 8.74667ZM21 16.6667C20.4533 16.6667 20 16.2133 20 15.6667C20 13.64 18.36 12 16.3333 12C15.7867 12 15.3333 11.5467 15.3333 11C15.3333 10.4533 15.7867 10 16.3333 10C19.4533 10 22 12.5467 22 15.6667C22 16.2133 21.5467 16.6667 21 16.6667Z" fill="white"/>
</svg>
