<svg width="19" height="28" viewBox="0 0 19 28" fill="none" xmlns="http://www.w3.org/2000/svg">
<path id="Shape" fill-rule="evenodd" clip-rule="evenodd" d="M11.9473 13.9306L17.9216 7.93131C18.2698 7.58253 18.4426 7.09497 18.3952 6.60436C18.3465 6.11314 18.0799 5.6694 17.672 5.39427L10.0749 0.281836C9.56786 -0.0602512 8.90864 -0.0931208 8.36995 0.193575C7.83064 0.480879 7.48308 1.0421 7.48308 1.65201V9.59366L3.53325 5.60062C2.89047 4.95297 1.85447 4.94871 1.20682 5.59027C0.559164 6.23305 0.554294 7.2794 1.19708 7.92705L7.15012 13.9294L1.19708 19.9311C0.554294 20.5782 0.559164 21.6245 1.20682 22.2685C1.85447 22.9107 2.89108 22.9071 3.53325 22.2582L7.48308 18.2651V26.2062C7.48308 26.8167 7.83064 27.3779 8.36995 27.6646C8.90864 27.9519 9.56786 27.9184 10.0749 27.5757L17.6714 22.4651C18.0805 22.1894 18.3465 21.7451 18.3946 21.2551C18.442 20.7638 18.2692 20.2775 17.921 19.9275L11.9473 13.9306ZM10.8358 4.75697L14.1939 7.01705L10.8358 10.3886V4.75697ZM10.8358 17.4732V23.1049L14.1939 20.8448L10.8358 17.4732Z" fill="white"/>
</svg>
