<svg width="32" height="21" viewBox="0 0 32 21" fill="none" xmlns="http://www.w3.org/2000/svg">
<path id="Shape" fill-rule="evenodd" clip-rule="evenodd" d="M29.3333 4.33331H29.6547C30.9413 4.33331 31.988 5.37998 31.988 6.66665V14C31.988 15.2866 30.9413 16.3333 29.6547 16.3333H29.3333V16.6666C29.3333 18.6893 27.688 20.3333 25.6667 20.3333H3.66667C1.64533 20.3333 0 18.6893 0 16.6666V3.99998C0 1.97731 1.64533 0.333313 3.66667 0.333313H25.6667C27.688 0.333313 29.3333 1.97731 29.3333 3.99998V4.33331ZM8.33333 16.3333C8.88533 16.3333 9.33333 15.8853 9.33333 15.3333V5.33331C9.33333 4.78131 8.88533 4.33331 8.33333 4.33331H5C4.448 4.33331 4 4.78131 4 5.33331V15.3333C4 15.8853 4.448 16.3333 5 16.3333H8.33333ZM17.3333 15.3333C17.3333 15.8853 16.8853 16.3333 16.3333 16.3333H13C12.448 16.3333 12 15.8853 12 15.3333V5.33331C12 4.78131 12.448 4.33331 13 4.33331H16.3333C16.8853 4.33331 17.3333 4.78131 17.3333 5.33331V15.3333ZM24.3333 16.3333C24.8853 16.3333 25.3333 15.8853 25.3333 15.3333V5.33331C25.3333 4.78131 24.8853 4.33331 24.3333 4.33331H21C20.448 4.33331 20 4.78131 20 5.33331V15.3333C20 15.8853 20.448 16.3333 21 16.3333H24.3333Z" fill="white"/>
</svg>
